<svg xmlns="http://www.w3.org/2000/svg" xmlns:xlink="http://www.w3.org/1999/xlink" version="1.1" x="0px" y="0px" viewBox="-58 312.9 493.4 168.1" style="enable-background:new -58 312.9 493.4 168.1;" xml:space="preserve">
<style type="text/css">
	.st0{fill:#0C4F76;}
	.st1{fill:#706F6F;}
</style>
<g>
	<path class="st0" d="M140 373.7c0-18.5 0-21.9-0.2-25.8c-0.2-4.1-1.2-6.1-5.2-6.9c-1-0.2-3-0.4-4.7-0.4c-1.3 0-2.1-0.2-2.1-1.1 s0.9-1.1 2.7-1.1c6.5 0 14.1 0.4 16.7 0.4c4.1 0 13.4-0.4 17.2-0.4c7.7 0 15.8 0.7 22.4 5.2c3.4 2.3 8.3 8.5 8.3 16.7 c0 9-3.8 17.3-16.1 27.3c10.8 13.6 19.2 24.5 26.4 32c6.8 7.1 11.8 7.9 13.6 8.3c1.3 0.2 2.4 0.4 3.4 0.4s1.5 0.4 1.5 1 c0 1-0.9 1.2-2.3 1.2H210c-6.8 0-9.9-0.6-13-2.3c-5.2-2.8-9.9-8.5-16.7-17.9c-4.9-6.7-10.5-15-12.1-16.8c-0.6-0.7-1.3-0.9-2.2-0.9 l-10.6-0.2c-0.6 0-1 0.2-1 1v1.7c0 11.3 0 20.9 0.6 26c0.4 3.5 1.1 6.2 4.7 6.7c1.8 0.2 4.5 0.5 6 0.5c1 0 1.5 0.4 1.5 1 c0 0.9-0.9 1.2-2.4 1.2c-7.1 0-16.1-0.4-17.9-0.4c-2.3 0-10 0.4-14.8 0.4c-1.6 0-2.4-0.4-2.4-1.2c0-0.6 0.5-1 1.9-1 c1.8 0 3.3-0.2 4.4-0.5c2.4-0.5 3-3.2 3.5-6.7c0.6-5.1 0.6-14.7 0.6-25.9v-21.5H140z M154.4 383.3c0 1.3 0.2 1.8 1.1 2.2 c2.6 0.9 6.2 1.2 9.3 1.2c4.9 0 6.5-0.5 8.6-2.1c3.7-2.7 7.2-8.3 7.2-18.3c0-17.3-11.4-22.3-18.6-22.3c-3 0-5.2 0.1-6.5 0.5 c-0.9 0.2-1.1 0.7-1.1 1.7V383.3z"/>
	<path class="st0" d="M217.2 391.3c0-17.6 12.4-40.5 44.9-40.5c27 0 43.8 15 43.8 38.7s-17.3 42.4-44.9 42.4 C229.8 431.8 217.2 409.6 217.2 391.3z M290 393.2c0-22.9-13.8-37-31-37c-11.9 0-25.9 6.3-25.9 31.9c0 21.3 12.2 38.1 32.4 38.1 C272.9 426.2 290 422.7 290 393.2z"/>
	<path class="st0" d="M323.7 429.1c-1.7-0.7-2.1-1.2-2.1-3.5c0-5.6 0.5-12 0.6-13.8c0-1.6 0.5-2.7 1.3-2.7c1 0 1.1 1 1.1 1.7 c0 1.3 0.4 3.5 1 5.4c2.3 7.7 10.3 10.2 17 10.2c9.3 0 14.8-5.8 14.8-13.1c0-4.5-1.1-9-10.6-14.6l-6.2-3.7 c-12.7-7.4-16.8-14.4-16.8-23.5c0-12.7 12.2-20.8 27-20.8c6.9 0 12.4 1 15.2 1.7c1 0.2 1.5 0.6 1.5 1.3c0 1.3-0.4 4.3-0.4 12.4 c0 2.2-0.5 3.3-1.3 3.3c-0.7 0-1.1-0.6-1.1-1.8c0-1-0.5-4.1-2.8-6.8c-1.6-1.9-5-4.9-11.9-4.9c-7.7 0-14.6 4-14.6 11.1 c0 4.6 1.7 8.3 11.3 13.6l4.4 2.4c14.1 7.8 18.5 15.7 18.5 25.1c0 7.7-2.9 13.9-10.7 19.4c-5.1 3.7-12.2 4.3-17.9 4.3 C334.9 431.8 328.3 431.2 323.7 429.1z"/>
	<path class="st0" d="M389.4 429.1c-1.7-0.7-2.1-1.2-2.1-3.5c0-5.6 0.5-12 0.6-13.8c0-1.6 0.5-2.7 1.3-2.7c1 0 1.1 1 1.1 1.7 c0 1.3 0.4 3.5 1 5.4c2.3 7.7 10.3 10.2 17 10.2c9.3 0 14.8-5.8 14.8-13.1c0-4.5-1.1-9-10.6-14.6l-6.2-3.7 c-12.7-7.4-16.8-14.4-16.8-23.5c0-12.7 12.2-20.8 27-20.8c6.9 0 12.4 1 15.2 1.7c1 0.2 1.5 0.6 1.5 1.3c0 1.3-0.4 4.3-0.4 12.4 c0 2.2-0.5 3.3-1.3 3.3c-0.7 0-1.1-0.6-1.1-1.8c0-1-0.5-4.1-2.8-6.8c-1.6-1.9-5-4.9-11.9-4.9c-7.7 0-14.6 4-14.6 11.1 c0 4.6 1.7 8.3 11.3 13.6l4.4 2.4c14.1 7.8 18.5 15.7 18.5 25.1c0 7.7-2.9 13.9-10.7 19.4c-5.1 3.7-12.2 4.3-17.9 4.3 C400.6 431.8 394 431.2 389.4 429.1z"/>
</g>
<g>
	<path class="st1" d="M145.5 447.3l-1.4 1.1c-1.1-1.4-2.9-2.3-5-2.3c-2 0-3.9 0.8-3.9 2.9c0 2.1 1.8 2.5 4.2 3.2 c3.2 0.8 6.4 1.7 6.4 5.2c0 3.2-2.6 5.2-6.4 5.2c-3.1 0-5.5-1.4-6.8-3.3l1.6-1.1c1.2 1.9 3.3 2.7 5.4 2.7c2.6 0 4.3-1.2 4.3-3.4 c0-2.3-2.1-2.7-5-3.4c-2.7-0.6-5.5-1.6-5.5-4.8c0-3.1 2.6-4.8 5.9-4.8C141.8 444.4 144 445.5 145.5 447.3z"/>
	<path class="st1" d="M149.6 462.2v-17.5h12.1v1.7h-10.2v5.6h8.9v1.7h-8.9v6.7H162v1.7h-12.4V462.2z"/>
	<path class="st1" d="M178.2 462.2l-2.2-5.3h-8.3l-2.1 5.3h-1.9l7.3-17.5h2.1l7.3 17.5H178.2z M171.9 446.6l-3.5 8.7h6.9 L171.9 446.6z"/>
	<path class="st1" d="M194.6 462.2l-4-7.4H185v7.4h-1.8v-17.5h7.5c3.4 0 5.6 1.9 5.6 4.9c0 2.4-1.5 4.1-3.7 4.8l4.2 7.7h-2.2V462.2z M190.5 446.4H185v6.6h5.7c2.3 0 3.7-1.3 3.7-3.3C194.3 447.7 192.8 446.4 190.5 446.4z"/>
	<path class="st1" d="M212.7 448.7c-1.1-1.6-2.8-2.6-5.1-2.6c-3.9 0-6.4 2.8-6.4 7.3s2.6 7.3 6.4 7.3c2.2 0 4.1-1 5.2-2.6l1.5 1.1 c-1.5 2-3.8 3.3-6.7 3.3c-5.1 0-8.4-3.9-8.4-9.1c0-5.2 3.3-9.1 8.4-9.1c3 0 5.1 1.3 6.6 3.2L212.7 448.7z"/>
	<path class="st1" d="M229.9 462.2v-8.4h-10.3v8.4h-1.8v-17.5h1.8v7.4h10.3v-7.4h1.8v17.5H229.9z"/>
	<path class="st1" d="M250.9 455.2h-5.2v7h-1.8v-17.5h7.1c3.9 0 6 2.1 6 5.2S254.9 455.2 250.9 455.2z M251 453.4c2.8 0 4-1.4 4-3.5 s-1.3-3.5-4-3.5h-5.3v7H251z"/>
	<path class="st1" d="M271.5 462.2l-2.1-5.3H261l-2.1 5.3H257l7.3-17.5h2.1l7.3 17.5H271.5z M265.3 446.6l-3.5 8.7h6.9L265.3 446.6z "/>
	<path class="st1" d="M287.9 462.2l-4-7.4h-5.7v7.4h-1.8v-17.5h7.5c3.4 0 5.6 1.9 5.6 4.9c0 2.4-1.5 4.1-3.7 4.8l4.2 7.7h-2.1V462.2 z M283.9 446.4h-5.6v6.6h5.7c2.3 0 3.7-1.3 3.7-3.3C287.6 447.7 286.1 446.4 283.9 446.4z"/>
	<path class="st1" d="M299.4 446.4v15.8h-1.9v-15.8h-6.1v-1.7h14.2v1.7H299.4z"/>
	<path class="st1" d="M320.6 462.2l-10.1-15.3v15.3h-1.8v-17.5h2.4l9.9 14.9v-14.9h1.8v17.5H320.6z"/>
	<path class="st1" d="M327.7 462.2v-17.5h12.1v1.7h-10.2v5.6h8.9v1.7h-8.9v6.7h10.5v1.7h-12.4V462.2z"/>
	<path class="st1" d="M355.4 462.2l-4-7.4h-5.7v7.4h-1.8v-17.5h7.5c3.4 0 5.6 1.9 5.6 4.9c0 2.4-1.5 4.1-3.7 4.8l4.2 7.7h-2.1V462.2 z M351.3 446.4h-5.6v6.6h5.7c2.3 0 3.7-1.3 3.7-3.3S353.6 446.4 351.3 446.4z"/>
	<path class="st1" d="M372.5 447.3l-1.4 1.1c-1.1-1.4-2.9-2.3-5-2.3c-2 0-3.9 0.8-3.9 2.9c0 2.1 1.8 2.5 4.2 3.2 c3.2 0.8 6.4 1.7 6.4 5.2c0 3.2-2.6 5.2-6.4 5.2c-3.1 0-5.5-1.4-6.8-3.3l1.6-1.1c1.2 1.9 3.3 2.7 5.4 2.7c2.6 0 4.3-1.2 4.3-3.4 c0-2.3-2.1-2.7-5-3.4c-2.7-0.6-5.5-1.6-5.5-4.8c0-3.1 2.6-4.8 5.9-4.8C368.9 444.4 371.1 445.5 372.5 447.3z"/>
	<path class="st1" d="M378.3 462.3c0 1.5-0.7 2.6-1.7 3.6l-0.7-0.6c0.9-0.8 1.3-1.7 1.3-2.4v-0.7H376v-2.3h2.3L378.3 462.3 L378.3 462.3z"/>
	<path class="st1" d="M389.9 462.2v-17.5h1.8v15.8h10v1.7H389.9z"/>
	<path class="st1" d="M404.6 462.2v-17.5h1.8v15.8h10v1.7H404.6z"/>
	<path class="st1" d="M431.2 448.7c-1.1-1.6-2.8-2.6-5.1-2.6c-3.9 0-6.4 2.8-6.4 7.3s2.6 7.3 6.4 7.3c2.2 0 4.1-1 5.2-2.6l1.5 1.1 c-1.5 2-3.8 3.3-6.7 3.3c-5.1 0-8.4-3.9-8.4-9.1c0-5.2 3.3-9.1 8.4-9.1c3 0 5.1 1.3 6.6 3.2L431.2 448.7z"/>
</g>
<g>
	<path class="st0" d="M24.2 347.9c-22.9-2.4-48-1.6-66.1-0.3C-52 361.4-58 378.5-58 396.9c0 20.9 7.6 40 20.3 54.7 C-32.8 432.6-15.8 379.2 24.2 347.9z"/>
	<path class="st1" d="M36.2 339.6c7.6-4.6 16-8.3 25.1-11c0 0-5.4 4.8-13.5 12.8c21.9 3.9 41.5 10 53.2 17.6 c-13.8-27.4-42.2-46.1-75-46.1c-23.5 0-44.8 9.7-60 25.3C-13.7 335.5 12 336.2 36.2 339.6z"/>
	<path class="st1" d="M11 424.2c8.4 28.2 43.6 41.1 57.7 45.2c24.8-14.6 41.4-41.6 41.4-72.4c0-3.5-0.2-6.9-0.6-10.3 C92.3 424.7 11 424.2 11 424.2z"/>
	<path class="st0" d="M1.9 421.8c0 0 79.9-12.1 79.9-39.9c0-18-18.4-27.3-42.3-31.8c-25.7 27.4-64 76.4-57.6 118.4 C-5.3 476.4 9.8 481 26 481c4.6 0 9-0.4 13.4-1.1C9.7 460.7 1.9 421.8 1.9 421.8z"/>
</g>
</svg>
